<svg width="160" height="259" viewBox="0 0 160 259" fill="none" xmlns="http://www.w3.org/2000/svg">
<g clip-path="url(#clip0_2_1168)">
<path d="M65.105 241.266H117.283V245.306H65.105V241.266Z" fill="white" stroke="#262626" stroke-width="0.577193" stroke-miterlimit="10"/>
<path d="M96.736 221.18C96.736 221.18 90.0406 227.067 81.3827 224.412C72.7248 221.757 45.9431 213.099 45.9431 213.099L54.2547 205.711C54.2547 205.711 82.5371 205.711 96.0434 204.326L102.97 210.79L96.736 221.18Z" fill="white" stroke="#262626" stroke-width="0.577193" stroke-miterlimit="10"/>
<path d="M62.3352 142.797C62.3352 142.797 55.178 153.302 66.1447 167.732C77.1113 182.162 93.2727 201.787 93.2727 201.787C93.2727 201.787 101.353 214.485 96.7359 221.065L128.712 190.704L62.3352 142.797Z" fill="white" stroke="#262626" stroke-width="0.577193" stroke-miterlimit="10"/>
<path d="M179.39 135.409L245.652 210.56C245.652 210.56 266.431 234.802 258.35 248.655C250.269 262.507 232.03 259.275 219.794 253.965C207.557 248.655 62.3354 142.913 62.3354 142.913L181.814 40.6343L238.726 83.462L179.39 135.409Z" fill="white" stroke="#262626" stroke-width="0.577193" stroke-miterlimit="10"/>
<path d="M145.566 107.936L119.939 92.6978L82.5369 125.598L106.894 144.53L145.566 107.936Z" fill="#FF6B00" stroke="#262626" stroke-width="0.577193" stroke-miterlimit="10"/>
<path d="M161.266 107.936L97.5435 64.5308L58.8716 98.5852L122.594 144.53L161.266 107.936Z" fill="white" stroke="#262626" stroke-width="0.577193" stroke-miterlimit="10"/>
<path d="M113.358 87.7334L99.2749 99.6236L137.139 130.561L161.958 107.127L113.358 87.7334Z" fill="#262626"/>
<path d="M233.299 240.574L125.595 153.88L149.837 129.753L233.299 240.574Z" fill="#262626"/>
<path d="M271.855 203.864L138.639 48.5991L99.8519 82.6535L233.299 240.574L271.855 203.864Z" fill="white" stroke="#262626" stroke-width="0.577193" stroke-miterlimit="10"/>
<path d="M181.815 86.2316L265.508 18.2383C267.24 36.1313 274.859 54.2551 274.859 54.2551L356.358 131.137L328.307 155.495L330.154 156.996C343.545 170.386 330.154 186.548 330.154 186.548L255.003 252.579C264.469 239.534 253.041 221.064 253.041 221.064L179.16 135.293C157.458 109.088 181.815 86.2316 181.815 86.2316Z" fill="white" stroke="#262626" stroke-width="0.577193" stroke-miterlimit="10"/>
<path d="M65.1062 205.712L78.4971 245.307H14.8904L0.345108 205.712H65.1062Z" fill="white" stroke="#262626" stroke-width="0.577193" stroke-miterlimit="10"/>
<path d="M113.013 205.711C113.013 205.711 115.437 202.941 108.972 190.589C102.508 178.122 84.6148 161.499 84.6148 161.499C84.6148 161.499 77.3422 154.226 76.0724 152.956L128.712 190.935L113.013 205.711Z" fill="#262626"/>
<circle r="8.51703" transform="matrix(-1 0 0 1 39.0271 226.387)" fill="white" stroke="#262626" stroke-width="0.549486"/>
</g>
<defs>
<clipPath id="clip0_2_1168">
<rect width="493.269" height="258.698" fill="white" transform="matrix(-1 0 0 1 493.269 0)"/>
</clipPath>
</defs>
</svg>
