<svg width="24" height="24" viewBox="0 0 24 24" fill="none" xmlns="http://www.w3.org/2000/svg">
<g clip-path="url(#clip0_2_870)">
<g clip-path="url(#clip1_2_870)">
<path d="M21.7665 2.3697C21.4331 1.97103 20.8665 1.87137 20.4331 2.17037L18.4998 3.49927C17.5998 2.53582 16.3331 2.00426 14.9665 2.00426C12.2665 2.00426 10.0331 4.19694 10.0331 6.92119C10.0331 7.31986 10.0665 7.6853 10.1665 8.05075C7.83313 7.55241 6.43313 5.85807 5.8998 2.8016C5.83313 2.40293 5.53313 2.10392 5.13313 2.00426C4.76646 1.90459 4.36646 2.0707 4.13313 2.3697C4.06646 2.43615 -1.43354 10.0773 6.53313 16.5557C5.76646 18.1836 3.46646 19.579 2.56646 20.0441C2.13313 20.2434 1.93313 20.7085 2.03313 21.1736C2.13313 21.6388 2.53313 21.9378 2.9998 21.9378H4.73313C14.8665 21.9378 19.4665 16.9212 19.5665 5.69195L21.6665 3.6986C22.0665 3.36638 22.0998 2.76837 21.7665 2.3697Z" fill="#DBD8D7"/>
</g>
</g>
<defs>
<clipPath id="clip0_2_870">
<rect width="20" height="20" fill="white" transform="translate(2 2)"/>
</clipPath>
<clipPath id="clip1_2_870">
<rect width="20" height="19.9667" fill="white" transform="translate(2 1.97134)"/>
</clipPath>
</defs>
</svg>
