<svg width="476" height="410" viewBox="0 0 476 410" fill="none" xmlns="http://www.w3.org/2000/svg">
<g clip-path="url(#clip0_3_1797)">
<path d="M310.908 87.2886L333.191 123.559C333.191 123.559 319.762 130.059 300.765 144.548C284.626 156.911 264.19 180.243 264.19 180.243L226.335 115.065C226.335 115.065 243.242 95.0439 268.365 78.1909C291.594 62.5293 296.428 63.523 296.428 63.523L310.908 87.2886Z" fill="white" stroke="#262626" stroke-width="0.496227" stroke-miterlimit="10"/>
<path d="M234.381 106.39L267.756 165.032C267.756 165.032 278.906 152.718 291.219 142.194C312.466 124.193 328.803 116.553 328.803 116.553L296.296 63.4489C296.428 63.5234 266.73 71.0886 234.381 106.39Z" fill="#262626"/>
<path d="M401.405 97.3184C401.405 97.3184 383.62 83.6914 346.767 97.1289C309.914 110.566 269.891 146.661 269.891 146.661L232.867 82.4751C232.867 82.4751 283.388 40.1366 317.346 33.5019C344.864 28.0968 359.269 35.5489 359.269 35.5489L401.405 97.3184Z" fill="white" stroke="#262626" stroke-width="0.496227" stroke-miterlimit="10"/>
<path d="M393.067 68.8471L348.664 162.937L224.501 147.351" stroke="#FF6B00" stroke-width="0.496227" stroke-miterlimit="10"/>
<path d="M224.088 198.804L292.02 179.974L301.373 213.717L233.441 232.547L224.088 198.804Z" fill="white" stroke="#FF6B00" stroke-width="0.496227" stroke-miterlimit="10"/>
<path d="M189.683 337.796L181.94 339.942C179.916 339.058 177.818 338.307 175.766 337.32C175.502 337.171 175.267 337.125 175.003 336.976L172.544 328.101L185.965 324.381L189.683 337.796Z" fill="white" stroke="#FF6B00" stroke-width="0.496227" stroke-miterlimit="10"/>
<path d="M206.821 347.489L220.243 343.769L216.524 330.354L203.103 334.074L199.385 320.66L212.806 316.94L209.088 303.525L195.667 307.245L182.245 310.965L178.527 297.551L191.948 293.831L188.23 280.416L174.809 284.136L178.527 297.551L165.106 301.271L151.685 304.991L147.966 291.576L134.545 295.297L121.124 299.017L124.842 312.431L128.561 325.846L115.139 329.566L111.421 316.151L105.433 317.811L99.1694 227.431C99.1694 227.431 108.061 214.188 131.951 213.344C167.735 212.092 185.298 231.337 214.913 237.907C233.524 242.082 237.653 233.715 237.653 233.715L249.728 311.372C249.728 311.372 280.877 304.628 298.662 325.477C309.217 337.886 293.352 350.839 276.937 355.389C259.799 360.139 239.53 357.202 207.079 348.418L206.821 347.489V347.489Z" fill="white" stroke="#FF6B00" stroke-width="0.496227" stroke-miterlimit="10"/>
<path d="M206.823 347.491L205.171 347.949C200.59 346.663 195.952 345.17 191.256 343.472L189.683 337.796L203.104 334.076L206.823 347.491Z" fill="white" stroke="#FF6B00" stroke-width="0.496227" stroke-miterlimit="10"/>
<path d="M172.544 328.099L159.432 331.734C159.329 331.762 159.197 331.688 159.094 331.716L155.404 318.405L168.825 314.685L172.544 328.099Z" fill="white" stroke="#FF6B00" stroke-width="0.496227" stroke-miterlimit="10"/>
<path d="M144.157 329.967C138.933 329.971 134.351 330.685 130.193 331.727L128.562 325.845L141.984 322.125L144.157 329.967Z" fill="white" stroke="#FF6B00" stroke-width="0.496227" stroke-miterlimit="10"/>
<path d="M108.536 345.841L107.504 346.127L106.47 331.969L115.142 329.565L117.316 337.407C112.892 340.3 109.908 343.572 108.536 345.841Z" fill="white" stroke="#FF6B00" stroke-width="0.496227" stroke-miterlimit="10"/>
<path d="M138.263 308.712L151.685 304.992L155.403 318.406L141.982 322.126L138.263 308.712Z" fill="white" stroke="#FF6B00" stroke-width="0.496227" stroke-miterlimit="10"/>
<path d="M226.013 239.05L238.37 332.964C238.37 332.964 260.866 317.061 290.952 321.723L274.193 231.585C274.193 231.585 259.905 220.544 237.784 233.787C237.784 233.787 233.221 239.386 226.013 239.05Z" fill="#262626"/>
<path d="M237.787 233.788L234.935 211.467C234.935 211.467 268.256 205.342 284.603 225.812L301.644 330.206C301.644 330.206 299.888 323.47 279.747 317.386C267.621 313.746 250.982 318.692 250.982 318.692L237.787 233.788Z" fill="white" stroke="#FF6B00" stroke-width="0.496227" stroke-miterlimit="10"/>
<path d="M155.732 215.306C155.732 215.306 142.748 208.571 126.309 214.239C109.871 219.906 70.1976 256.46 70.1976 256.46L68.9511 327.365C68.9511 327.365 117.372 286.275 133.322 282.854C148.521 279.531 161.476 286.162 161.476 286.162L155.732 215.306Z" fill="#262626"/>
<path d="M143.071 197.704C143.071 197.704 130.813 193.99 113.648 196.637C98.1918 199.032 57.5361 238.858 57.5361 238.858L56.2896 309.764C56.2896 309.764 105.197 270.428 120.66 265.253C136.124 260.078 148.53 265.528 148.53 265.528L143.071 197.704Z" fill="white" stroke="#FF6B00" stroke-width="0.496227" stroke-miterlimit="10"/>
<path d="M102.32 201.888L102.551 233.604L71.6537 258.503L71.8309 225.451L94.3914 206.975L102.32 201.888Z" fill="#262626"/>
<path d="M137.855 337.713L172.543 328.098L178.636 350.077L143.947 359.692L137.855 337.713Z" fill="white" stroke="#FF6B00" stroke-width="0.496227" stroke-miterlimit="10"/>
<path d="M169.82 341.249L166.014 344.734L165.77 343.853L168.691 341.295L168.676 341.24L164.855 340.551L164.61 339.67L169.667 340.699L169.82 341.249ZM159.819 338.746L160.562 338.54L165.171 346.346L164.428 346.552L159.819 338.746ZM156.435 347.626L152.498 345.398L154.726 341.461L155.403 341.844L153.825 344.623L159.474 343.057L159.683 343.814L154.034 345.38L156.82 346.956L156.435 347.626ZM146.306 347.767L146.153 347.216L149.959 343.731L150.203 344.612L147.281 347.17L147.297 347.225L151.118 347.915L151.362 348.795L146.306 347.767Z" fill="black"/>
<path d="M94.343 199.989L94.4706 231.733L63.5736 256.632L63.7606 226.022L94.343 199.989Z" fill="white" stroke="#262626" stroke-width="0.496227" stroke-miterlimit="10"/>
<path d="M138.7 173.915L135.893 144.135L166.819 119.34L169.282 147.881L138.7 173.915Z" fill="white" stroke="#262626" stroke-width="0.496227" stroke-miterlimit="10"/>
<path d="M152.592 151.842C150.653 152.379 148.646 151.244 148.109 149.307C147.572 147.369 148.708 145.363 150.647 144.825C152.585 144.288 154.592 145.423 155.129 147.361C155.667 149.298 154.53 151.305 152.592 151.842Z" fill="white" stroke="#262626" stroke-width="0.496227" stroke-miterlimit="10"/>
<path d="M79.7224 237.489L79.7205 248.712L68.819 257.512L68.9353 246.702L79.7224 237.489Z" fill="white" stroke="#262626" stroke-width="0.496227" stroke-miterlimit="10"/>
<path d="M119.261 254.197L119.352 272.173L102.445 282.97L102.526 265.614L119.261 254.197Z" fill="white" stroke="#262626" stroke-width="0.496227" stroke-miterlimit="10"/>
<path d="M176.026 266.464C168.557 268.534 160.824 264.16 158.755 256.695C156.686 249.229 161.063 241.498 168.532 239.428C176.002 237.358 183.734 241.731 185.804 249.197C187.873 256.663 183.496 264.393 176.026 266.464Z" fill="#262626"/>
<path d="M172.468 260.449C164.999 262.52 157.266 258.146 155.197 250.68C153.127 243.214 157.505 235.484 164.974 233.414C172.443 231.343 180.176 235.717 182.245 243.183C184.315 250.648 179.937 258.379 172.468 260.449Z" fill="white" stroke="#262626" stroke-width="0.496227" stroke-miterlimit="10"/>
<path d="M168.723 246.932L222.611 151.768" stroke="#FF6B00" stroke-width="0.496227" stroke-miterlimit="10"/>
<path d="M228.248 160.871C220.778 162.942 213.046 158.568 210.976 151.102C208.907 143.636 213.285 135.906 220.754 133.836C228.223 131.765 235.956 136.139 238.025 143.605C240.095 151.07 235.717 158.801 228.248 160.871Z" fill="white" stroke="#FF6B00" stroke-width="0.496227" stroke-miterlimit="10"/>
<path d="M219.336 134.34L221.616 128.93L234.772 145.507L224.804 164.493L222.357 161.282" stroke="#FF6B00" stroke-width="0.496227" stroke-miterlimit="10"/>
<path d="M288.765 194.627L283.9 199.082L283.588 197.957L287.323 194.686L287.303 194.616L282.418 193.734L282.105 192.609L288.57 193.924L288.765 194.627ZM277.116 201.266L282.745 199.706L283.014 200.673L277.384 202.234L277.116 201.266ZM271.516 202.818L277.146 201.258L277.414 202.225L271.784 203.786L271.516 202.818ZM265.916 204.37L271.546 202.81L271.814 203.777L266.185 205.338L265.916 204.37ZM259.181 196.084L260.131 195.82L266.022 205.8L265.072 206.063L259.181 196.084ZM255.902 207.146L261.532 205.586L261.8 206.553L256.17 208.114L255.902 207.146ZM248.123 205.893L247.928 205.189L252.793 200.734L253.105 201.859L249.37 205.13L249.39 205.2L254.275 206.082L254.587 207.207L248.123 205.893Z" fill="black"/>
<path d="M349.563 166.578C347.225 167.226 344.805 165.857 344.157 163.521C343.51 161.184 344.88 158.765 347.217 158.117C349.555 157.469 351.975 158.838 352.623 161.174C353.271 163.511 351.9 165.93 349.563 166.578Z" fill="white" stroke="#F55800" stroke-width="0.496227" stroke-miterlimit="10"/>
<path d="M397.043 83.1925C387.749 85.7686 378.128 80.3265 375.553 71.0371C372.978 61.7478 378.425 52.1289 387.719 49.5528C397.013 46.9767 406.634 52.4188 409.209 61.7082C411.784 70.9975 406.337 80.6164 397.043 83.1925Z" fill="white" stroke="#F55800" stroke-width="0.496227" stroke-miterlimit="10"/>
<path d="M169.71 248.876C168.341 249.256 166.925 248.454 166.546 247.087C166.167 245.719 166.969 244.302 168.337 243.923C169.705 243.544 171.122 244.345 171.501 245.713C171.88 247.081 171.078 248.497 169.71 248.876Z" fill="white" stroke="#FF6B00" stroke-width="0.496227" stroke-miterlimit="10"/>
<path d="M377.993 56.5801C377.993 56.5801 380.291 67.2771 390.311 72.9447C400.331 78.6122 407.421 75.3136 407.421 75.3136" fill="white"/>
<path d="M377.993 56.5801C377.993 56.5801 380.291 67.2771 390.311 72.9447C400.331 78.6122 407.421 75.3136 407.421 75.3136" stroke="#F55800" stroke-width="0.496227" stroke-miterlimit="10"/>
<path d="M268.456 105.392L282.257 100.233L280.598 85.0256L294.829 79.4142L296.545 94.8285L311.349 89.2804L313.105 105.239L298.214 110.478L283.737 115.602L285.349 131.045L271.406 135.687L272.886 151.056L259.373 155.246L257.978 140.187L256.509 125.26L269.879 120.554L268.456 105.392Z" fill="#666666"/>
<path d="M266.986 90.467L265.413 75.5686L279.071 69.894L280.597 85.0273L266.986 90.467Z" fill="#262626"/>
<path d="M255.066 110.436L253.653 95.7158L266.984 90.4652L268.453 105.392L255.066 110.436Z" fill="#262626"/>
<path d="M240.915 100.694L239.589 86.2829L252.243 80.9976L253.655 95.7181L240.915 100.694Z" fill="#262626"/>
<path d="M242.27 115.208L255.067 110.439L256.508 125.263L243.551 129.854L231.11 134.303L229.783 119.892L228.485 105.584L240.915 100.694L242.27 115.208Z" fill="#FF6B00"/>
<path d="M309.649 73.5279L294.827 79.4142L293.215 63.9713L279.07 69.8922L277.572 54.8621L291.66 48.7348L306.235 42.3612L307.876 57.9073L323.128 51.5684L338.972 44.9546L340.916 61.1944L324.987 67.4986L326.771 83.5606L311.347 89.2804L309.649 73.5279Z" fill="#F55800"/>
<path d="M342.888 77.5367L344.787 94.0115L328.686 99.6966L326.77 83.56L342.888 77.5367Z" fill="#262626"/>
<path d="M319.526 20.121L321.298 35.7416L306.235 42.3615L304.52 26.9472L319.526 20.121Z" fill="#262626"/>
<path d="M265.41 75.5695L252.24 80.9979L250.885 66.4838L249.559 52.0728L262.483 46.157L275.997 39.9664L277.57 54.8647L263.97 60.7458L265.41 75.5695Z" fill="#262626"/>
<path d="M226.003 77.3793L238.29 71.9735L239.588 86.2813L227.243 91.4808L226.003 77.3793Z" fill="#262626"/>
<path d="M216.571 110.327L215.359 96.329L227.244 91.479L228.485 105.58L216.571 110.327Z" fill="#262626"/>
<path d="M328.687 99.6965L330.528 115.965L314.858 121.197L313.102 105.239L328.687 99.6965Z" fill="#262626"/>
<path d="M151.622 148.33L379.969 215.71" stroke="#FF6B00" stroke-width="0.496227" stroke-miterlimit="10"/>
<path d="M387.679 191.791L387.835 223.638L356.938 248.537L357.125 217.928L387.679 191.791Z" fill="white" stroke="#666666" stroke-width="0.496227" stroke-miterlimit="10"/>
</g>
<defs>
<clipPath id="clip0_3_1797">
<rect width="406.889" height="312.031" fill="white" transform="matrix(-0.963665 0.267112 0.267112 0.963665 392.105 0)"/>
</clipPath>
</defs>
</svg>
